<mxfile host="65bd71144e">
    <diagram id="7oNqLGNNsP6F4T7zOrMc" name="Page-1">
        <mxGraphModel dx="4983" dy="1907" grid="1" gridSize="10" guides="1" tooltips="1" connect="1" arrows="1" fold="1" page="1" pageScale="1" pageWidth="850" pageHeight="1100" math="0" shadow="0">
            <root>
                <mxCell id="0"/>
                <mxCell id="1" parent="0"/>
                <mxCell id="4" style="edgeStyle=none;html=1;entryX=0.5;entryY=0;entryDx=0;entryDy=0;fontSize=35;fontStyle=1;strokeWidth=3;" parent="1" source="3" target="5" edge="1">
                    <mxGeometry relative="1" as="geometry">
                        <mxPoint x="-440" y="160" as="targetPoint"/>
                    </mxGeometry>
                </mxCell>
                <mxCell id="3" value="&lt;font style=&quot;font-size: 35px;&quot;&gt;Website Trường Đại học&lt;/font&gt;" style="rounded=0;whiteSpace=wrap;html=1;fontSize=35;fontStyle=1;strokeWidth=3;" parent="1" vertex="1">
                    <mxGeometry x="175" y="30" width="500" height="80" as="geometry"/>
                </mxCell>
                <mxCell id="6" style="edgeStyle=none;html=1;fontSize=35;fontStyle=1;entryX=0.5;entryY=0;entryDx=0;entryDy=0;strokeWidth=3;" parent="1" source="5" edge="1" target="7">
                    <mxGeometry relative="1" as="geometry">
                        <mxPoint x="-1080" y="320" as="targetPoint"/>
                    </mxGeometry>
                </mxCell>
                <mxCell id="42" style="edgeStyle=none;html=1;entryX=0.5;entryY=0;entryDx=0;entryDy=0;fontSize=35;fontStyle=1;strokeWidth=3;" parent="1" source="5" target="17" edge="1">
                    <mxGeometry relative="1" as="geometry"/>
                </mxCell>
                <mxCell id="43" style="edgeStyle=none;html=1;entryX=0.573;entryY=0.017;entryDx=0;entryDy=0;entryPerimeter=0;fontSize=35;fontStyle=1;strokeWidth=3;" parent="1" source="5" target="28" edge="1">
                    <mxGeometry relative="1" as="geometry"/>
                </mxCell>
                <mxCell id="44" style="edgeStyle=none;html=1;entryX=0.5;entryY=0;entryDx=0;entryDy=0;fontSize=35;fontStyle=1;strokeWidth=3;" parent="1" source="5" target="35" edge="1">
                    <mxGeometry relative="1" as="geometry"/>
                </mxCell>
                <mxCell id="5" value="Quản lí nội dung&lt;br style=&quot;font-size: 35px;&quot;&gt;Directus CMS" style="rounded=0;whiteSpace=wrap;html=1;fontSize=35;fontStyle=1;strokeWidth=3;" parent="1" vertex="1">
                    <mxGeometry x="255" y="180" width="340" height="80" as="geometry"/>
                </mxCell>
                <mxCell id="8" style="edgeStyle=none;html=1;entryX=0.5;entryY=0;entryDx=0;entryDy=0;fontSize=35;fontStyle=1;strokeWidth=3;" parent="1" source="7" target="9" edge="1">
                    <mxGeometry relative="1" as="geometry">
                        <mxPoint x="-700" y="550" as="targetPoint"/>
                    </mxGeometry>
                </mxCell>
                <mxCell id="10" style="edgeStyle=none;html=1;entryX=0.5;entryY=0;entryDx=0;entryDy=0;fontSize=35;fontStyle=1;strokeWidth=3;" parent="1" source="7" target="11" edge="1">
                    <mxGeometry relative="1" as="geometry">
                        <mxPoint x="-550" y="560" as="targetPoint"/>
                    </mxGeometry>
                </mxCell>
                <mxCell id="12" style="edgeStyle=none;html=1;entryX=0.5;entryY=0;entryDx=0;entryDy=0;fontSize=35;fontStyle=1;strokeWidth=3;" parent="1" source="7" target="13" edge="1">
                    <mxGeometry relative="1" as="geometry">
                        <mxPoint x="-300" y="560" as="targetPoint"/>
                    </mxGeometry>
                </mxCell>
                <mxCell id="7" value="Quản lí &lt;br&gt;người dùng" style="rounded=0;whiteSpace=wrap;html=1;fontSize=35;fontStyle=1;strokeWidth=3;" parent="1" vertex="1">
                    <mxGeometry x="-1270" y="320" width="240" height="80" as="geometry"/>
                </mxCell>
                <mxCell id="9" value="Phân quyền&amp;nbsp; người dùng" style="rounded=0;whiteSpace=wrap;html=1;fontSize=35;fontStyle=1;strokeWidth=3;" parent="1" vertex="1">
                    <mxGeometry x="-1510" y="480" width="240" height="80" as="geometry"/>
                </mxCell>
                <mxCell id="11" value="Xác thực" style="rounded=0;whiteSpace=wrap;html=1;fontSize=35;fontStyle=1;strokeWidth=3;" parent="1" vertex="1">
                    <mxGeometry x="-1230" y="480" width="160" height="80" as="geometry"/>
                </mxCell>
                <mxCell id="13" value="&lt;font style=&quot;font-size: 35px;&quot;&gt;Quản lí nhóm người dùng&lt;/font&gt;" style="rounded=0;whiteSpace=wrap;html=1;fontSize=35;fontStyle=1;strokeWidth=3;" parent="1" vertex="1">
                    <mxGeometry x="-1030" y="480" width="230" height="80" as="geometry"/>
                </mxCell>
                <mxCell id="14" style="edgeStyle=none;html=1;entryX=0.5;entryY=0;entryDx=0;entryDy=0;fontSize=35;fontStyle=1;strokeWidth=3;" parent="1" source="17" target="18" edge="1">
                    <mxGeometry relative="1" as="geometry">
                        <mxPoint x="-660" y="470" as="targetPoint"/>
                    </mxGeometry>
                </mxCell>
                <mxCell id="15" style="edgeStyle=none;html=1;entryX=0.5;entryY=0;entryDx=0;entryDy=0;fontSize=35;fontStyle=1;strokeWidth=3;" parent="1" source="17" target="19" edge="1">
                    <mxGeometry relative="1" as="geometry">
                        <mxPoint x="-510" y="480" as="targetPoint"/>
                    </mxGeometry>
                </mxCell>
                <mxCell id="16" style="edgeStyle=none;html=1;entryX=0.5;entryY=0;entryDx=0;entryDy=0;fontSize=35;fontStyle=1;strokeWidth=3;" parent="1" source="17" target="20" edge="1">
                    <mxGeometry relative="1" as="geometry">
                        <mxPoint x="-260" y="480" as="targetPoint"/>
                    </mxGeometry>
                </mxCell>
                <mxCell id="39" style="edgeStyle=none;html=1;entryX=0.5;entryY=0;entryDx=0;entryDy=0;fontSize=35;fontStyle=1;strokeWidth=3;" parent="1" source="17" target="21" edge="1">
                    <mxGeometry relative="1" as="geometry"/>
                </mxCell>
                <mxCell id="40" style="edgeStyle=none;html=1;entryX=0.5;entryY=0;entryDx=0;entryDy=0;fontSize=35;fontStyle=1;strokeWidth=3;" parent="1" source="17" target="22" edge="1">
                    <mxGeometry relative="1" as="geometry"/>
                </mxCell>
                <mxCell id="41" style="edgeStyle=none;html=1;entryX=0.5;entryY=0;entryDx=0;entryDy=0;fontSize=35;fontStyle=1;strokeWidth=3;" parent="1" source="17" target="23" edge="1">
                    <mxGeometry relative="1" as="geometry"/>
                </mxCell>
                <mxCell id="17" value="Quản lí &lt;br&gt;nội dung" style="rounded=0;whiteSpace=wrap;html=1;fontSize=35;fontStyle=1;strokeWidth=3;" parent="1" vertex="1">
                    <mxGeometry x="-150" y="320" width="200" height="80" as="geometry"/>
                </mxCell>
                <mxCell id="18" value="Bài viết/&lt;br style=&quot;font-size: 35px;&quot;&gt;Tin tức" style="rounded=0;whiteSpace=wrap;html=1;fontSize=35;fontStyle=1;strokeWidth=3;" parent="1" vertex="1">
                    <mxGeometry x="-720" y="480" width="160" height="80" as="geometry"/>
                </mxCell>
                <mxCell id="19" value="Trang tĩnh" style="rounded=0;whiteSpace=wrap;html=1;fontSize=35;fontStyle=1;strokeWidth=3;" parent="1" vertex="1">
                    <mxGeometry x="-520" y="480" width="160" height="80" as="geometry"/>
                </mxCell>
                <mxCell id="20" value="&lt;font style=&quot;font-size: 35px;&quot;&gt;Chương trình đào tạo&lt;/font&gt;" style="rounded=0;whiteSpace=wrap;html=1;fontSize=35;fontStyle=1;strokeWidth=3;" parent="1" vertex="1">
                    <mxGeometry x="-330" y="480" width="230" height="80" as="geometry"/>
                </mxCell>
                <mxCell id="21" value="Thông báo" style="rounded=0;whiteSpace=wrap;html=1;fontSize=35;fontStyle=1;strokeWidth=3;" parent="1" vertex="1">
                    <mxGeometry x="-70" y="480" width="190" height="80" as="geometry"/>
                </mxCell>
                <mxCell id="22" value="Sự kiện" style="rounded=0;whiteSpace=wrap;html=1;fontSize=35;fontStyle=1;strokeWidth=3;" parent="1" vertex="1">
                    <mxGeometry x="160" y="480" width="160" height="80" as="geometry"/>
                </mxCell>
                <mxCell id="23" value="Nghiên cứu &amp;amp; dự án" style="rounded=0;whiteSpace=wrap;html=1;fontSize=35;fontStyle=1;strokeWidth=3;" parent="1" vertex="1">
                    <mxGeometry x="360" y="480" width="200" height="80" as="geometry"/>
                </mxCell>
                <mxCell id="25" style="edgeStyle=none;html=1;entryX=0.5;entryY=0;entryDx=0;entryDy=0;fontSize=35;fontStyle=1;strokeWidth=3;" parent="1" source="28" target="29" edge="1">
                    <mxGeometry relative="1" as="geometry">
                        <mxPoint x="950" y="470" as="targetPoint"/>
                    </mxGeometry>
                </mxCell>
                <mxCell id="26" style="edgeStyle=none;html=1;entryX=0.5;entryY=0;entryDx=0;entryDy=0;fontSize=35;fontStyle=1;strokeWidth=3;" parent="1" source="28" target="30" edge="1">
                    <mxGeometry relative="1" as="geometry">
                        <mxPoint x="1080" y="470" as="targetPoint"/>
                    </mxGeometry>
                </mxCell>
                <mxCell id="27" style="edgeStyle=none;html=1;entryX=0.5;entryY=0;entryDx=0;entryDy=0;fontSize=35;fontStyle=1;strokeWidth=3;" parent="1" source="28" target="31" edge="1">
                    <mxGeometry relative="1" as="geometry">
                        <mxPoint x="1330" y="470" as="targetPoint"/>
                    </mxGeometry>
                </mxCell>
                <mxCell id="28" value="Quản lí media" style="rounded=0;whiteSpace=wrap;html=1;fontSize=35;fontStyle=1;strokeWidth=3;" parent="1" vertex="1">
                    <mxGeometry x="840" y="320" width="160" height="80" as="geometry"/>
                </mxCell>
                <mxCell id="29" value="Hình ảnh" style="rounded=0;whiteSpace=wrap;html=1;fontSize=35;fontStyle=1;strokeWidth=3;" parent="1" vertex="1">
                    <mxGeometry x="640" y="480" width="160" height="80" as="geometry"/>
                </mxCell>
                <mxCell id="30" value="Video" style="rounded=0;whiteSpace=wrap;html=1;fontSize=35;fontStyle=1;strokeWidth=3;" parent="1" vertex="1">
                    <mxGeometry x="840" y="480" width="160" height="80" as="geometry"/>
                </mxCell>
                <mxCell id="31" value="Tài liệu" style="rounded=0;whiteSpace=wrap;html=1;fontSize=35;fontStyle=1;strokeWidth=3;" parent="1" vertex="1">
                    <mxGeometry x="1040" y="480" width="160" height="80" as="geometry"/>
                </mxCell>
                <mxCell id="32" style="edgeStyle=none;html=1;entryX=0.5;entryY=0;entryDx=0;entryDy=0;fontSize=35;fontStyle=1;strokeWidth=3;" parent="1" source="35" target="36" edge="1">
                    <mxGeometry relative="1" as="geometry">
                        <mxPoint x="1335" y="470" as="targetPoint"/>
                    </mxGeometry>
                </mxCell>
                <mxCell id="33" style="edgeStyle=none;html=1;entryX=0.5;entryY=0;entryDx=0;entryDy=0;fontSize=35;fontStyle=1;strokeWidth=3;" parent="1" source="35" target="37" edge="1">
                    <mxGeometry relative="1" as="geometry">
                        <mxPoint x="1485" y="480" as="targetPoint"/>
                    </mxGeometry>
                </mxCell>
                <mxCell id="34" style="edgeStyle=none;html=1;fontSize=35;fontStyle=1;strokeWidth=3;" parent="1" source="35" edge="1">
                    <mxGeometry relative="1" as="geometry">
                        <mxPoint x="1735" y="480" as="targetPoint"/>
                    </mxGeometry>
                </mxCell>
                <mxCell id="35" value="Quản lí API" style="rounded=0;whiteSpace=wrap;html=1;fontSize=35;fontStyle=1;strokeWidth=3;" parent="1" vertex="1">
                    <mxGeometry x="1475" y="320" width="160" height="80" as="geometry"/>
                </mxCell>
                <mxCell id="36" value="REST API" style="rounded=0;whiteSpace=wrap;html=1;fontSize=35;fontStyle=1;strokeWidth=3;" parent="1" vertex="1">
                    <mxGeometry x="1275" y="480" width="160" height="80" as="geometry"/>
                </mxCell>
                <mxCell id="37" value="Video" style="rounded=0;whiteSpace=wrap;html=1;fontSize=35;fontStyle=1;strokeWidth=3;" parent="1" vertex="1">
                    <mxGeometry x="1475" y="480" width="160" height="80" as="geometry"/>
                </mxCell>
                <mxCell id="38" value="GraphQL API" style="rounded=0;whiteSpace=wrap;html=1;fontSize=35;fontStyle=1;strokeWidth=3;" parent="1" vertex="1">
                    <mxGeometry x="1675" y="480" width="160" height="80" as="geometry"/>
                </mxCell>
            </root>
        </mxGraphModel>
    </diagram>
</mxfile>